<?xml version="1.0" encoding="utf-8"?>
<!-- Generator: Adobe Illustrator 26.1.0, SVG Export Plug-In . SVG Version: 6.00 Build 0)  -->
<svg version="1.1"
	 id="svg3476" sodipodi:docname="CSS3.svg" xmlns:cc="http://creativecommons.org/ns#" xmlns:dc="http://purl.org/dc/elements/1.1/" xmlns:inkscape="http://www.inkscape.org/namespaces/inkscape" xmlns:rdf="http://www.w3.org/1999/02/22-rdf-syntax-ns#" xmlns:sodipodi="http://sodipodi.sourceforge.net/DTD/sodipodi-0.dtd" xmlns:svg="http://www.w3.org/2000/svg"
	 xmlns="http://www.w3.org/2000/svg" xmlns:xlink="http://www.w3.org/1999/xlink" x="0px" y="0px" viewBox="0 0 630 630"
	 style="enable-background:new 0 0 630 630;" xml:space="preserve">
<style type="text/css">
	.st0{fill:#264DE4;}
	.st1{fill:#2965F1;}
	.st2{fill:#EBEBEB;}
	.st3{fill:#FFFFFF;}
</style>
<sodipodi:namedview  bordercolor="#666666" borderopacity="1.0" fit-margin-bottom="0" fit-margin-left="0" fit-margin-right="0" fit-margin-top="0" id="base" inkscape:current-layer="layer1" inkscape:cx="181.367" inkscape:cy="256" inkscape:document-units="px" inkscape:pageopacity="0.0" inkscape:pageshadow="2" inkscape:window-height="704" inkscape:window-maximized="1" inkscape:window-width="1366" inkscape:window-x="0" inkscape:window-y="27" inkscape:zoom="0.35" pagecolor="#ffffff" showgrid="false">
	</sodipodi:namedview>
<g id="layer1" transform="translate(-193.633,-276.3622)" inkscape:groupmode="layer" inkscape:label="Calque 1">
	<g id="g3013" transform="translate(119,276.3622)">
		<polygon id="polygon2989" class="st0" points="612.8,123.8 572.1,579.3 389.4,630 207.1,579.4 166.5,123.8 		"/>
		<polygon id="polygon2991" class="st1" points="537.3,550.3 572.1,161.1 389.6,161.1 389.6,591.3 		"/>
		<polygon id="polygon2993" class="st2" points="259.6,330 264.6,385.9 389.6,385.9 389.6,330 		"/>
		<polygon id="polygon2995" class="st2" points="389.6,216.9 389.4,216.9 249.5,216.9 254.6,272.8 389.6,272.8 		"/>
		<polygon id="polygon2997" class="st2" points="389.6,533.3 389.6,475.1 389.4,475.2 327.2,458.4 323.2,413.8 292.9,413.8 
			267.1,413.8 274.9,501.6 389.4,533.4 		"/>
		<path id="path2999" inkscape:connector-curvature="0" d="M271.5,0h67.7v28.3h-39.4v28.3h39.4v28.3h-67.7V0z"/>
		<path id="path3001" inkscape:connector-curvature="0" d="M352.7,0h67.7v24.6H381v4.9h39.4v56.6h-67.7V60.3h39.4v-4.9h-39.4V0z"/>
		<path id="path3003" inkscape:connector-curvature="0" d="M433.9,0h67.7v24.6h-39.4v4.9h39.4v56.6h-67.7V60.3h39.4v-4.9h-39.4V0z"
			/>
		<polygon id="polygon3005" class="st3" points="458.2,385.9 451.8,458.4 389.4,475.2 389.4,533.3 504,501.6 504.8,492.1 518,345 
			519.3,330 529.4,216.9 389.4,216.9 389.4,272.8 468.2,272.8 463.1,330 389.4,330 389.4,385.9 		"/>
	</g>
</g>
</svg>
