<?xml version="1.0" encoding="utf-8"?>
<!-- Generator: Adobe Illustrator 26.1.0, SVG Export Plug-In . SVG Version: 6.00 Build 0)  -->
<svg version="1.1" id="Capa_1" xmlns="http://www.w3.org/2000/svg" xmlns:xlink="http://www.w3.org/1999/xlink" x="0px" y="0px"
	 viewBox="0 0 116.2 116.2" style="enable-background:new 0 0 116.2 116.2;" xml:space="preserve">
<style type="text/css">
	.st0{fill:#F05133;}
</style>
<path class="st0" d="M112.9,53L63.2,3.3c-2.9-2.9-7.5-2.9-10.4,0L42.5,13.6l13.1,13.1c3-1,6.5-0.3,9,2.1c2.4,2.4,3.1,6,2.1,9
	l12.6,12.6c3.1-1.1,6.6-0.4,9,2.1c3.4,3.4,3.4,8.9,0,12.3c-3.4,3.4-8.9,3.4-12.3,0c-2.6-2.6-3.2-6.3-1.9-9.5L62.2,43.6l0,31
	c0.8,0.4,1.6,1,2.3,1.7c3.4,3.4,3.4,8.9,0,12.3c-3.4,3.4-8.9,3.4-12.3,0c-3.4-3.4-3.4-8.9,0-12.3c0.8-0.8,1.8-1.5,2.9-1.9V43.1
	c-1-0.4-2-1.1-2.9-1.9c-2.6-2.6-3.2-6.4-1.9-9.5L37.4,18.7L3.3,52.8c-2.9,2.9-2.9,7.5,0,10.4L53,112.9c2.9,2.9,7.5,2.9,10.4,0
	l49.5-49.5C115.8,60.6,115.8,55.9,112.9,53"/>
</svg>
