<?xml version="1.0" encoding="utf-8"?>
<!-- Generator: Adobe Illustrator 26.1.0, SVG Export Plug-In . SVG Version: 6.00 Build 0)  -->
<svg version="1.1" id="Capa_1" xmlns="http://www.w3.org/2000/svg" xmlns:xlink="http://www.w3.org/1999/xlink" x="0px" y="0px"
	 viewBox="0 0 630 630" style="enable-background:new 0 0 630 630;" xml:space="preserve">
<style type="text/css">
	.st0{fill:#E44D26;}
	.st1{fill:#F16529;}
	.st2{fill:#EBEBEB;}
	.st3{fill:#FFFFFF;}
</style>
<path d="M134.2,1.5h28.2v27.9h26V1.5h28.2V86h-28.2V57.8h-25.7V86h-28.4 M253.8,29.6h-24.9V1.5h78v28.2h-25V86h-28.2 M319.3,1.5
	h29.5l18.1,29.8l18.1-29.8h29.5V86h-28.2V44.1l-19.7,30.4L347,44.1V86h-27.7 M428.5,1.5h28.2V58h39.9V86h-68.1"/>
<path class="st0" d="M133.2,578.3L92.8,124.7h444.4l-40.4,453.4l-182.1,50.5"/>
<path class="st1" d="M315,590V161.9h181.6l-34.7,387"/>
<path class="st2" d="M175.4,217.4H315V273h-78.6l5.1,57H315v55.5H190.6 M193,413.4h55.9l3.9,44.5l62.2,16.7v58.1l-114.2-31.8"/>
<path class="st3" d="M454.1,217.4H314.8V273H449 M444,329.9H314.8v55.6h68.6l-6.5,72.3l-62.1,16.7v57.8l113.9-31.6"/>
</svg>
