<?xml version="1.0" encoding="UTF-8"?><svg id="a" xmlns="http://www.w3.org/2000/svg" viewBox="0 0 181.75 177.27"><defs><style>.b{fill:currentColor;}</style></defs><path class="b" d="M90.87,0C40.69,0,0,40.69,0,90.88c0,40.15,26.04,74.21,62.15,86.23,4.54,.83,6.2-1.97,6.2-4.38,0-2.16-.08-7.87-.12-15.46-25.28,5.49-30.61-12.18-30.61-12.18-4.13-10.5-10.09-13.29-10.09-13.29-8.25-5.64,.62-5.52,.62-5.52,9.12,.64,13.92,9.37,13.92,9.37,8.11,13.89,21.27,9.88,26.45,7.55,.83-5.87,3.17-9.88,5.77-12.15-20.18-2.29-41.39-10.09-41.39-44.91,0-9.92,3.54-18.03,9.35-24.39-.93-2.3-4.05-11.54,.89-24.05,0,0,7.63-2.44,24.99,9.32,7.25-2.02,15.02-3.02,22.75-3.06,7.72,.04,15.49,1.04,22.75,3.06,17.35-11.76,24.97-9.32,24.97-9.32,4.96,12.51,1.84,21.75,.9,24.05,5.82,6.35,9.34,14.46,9.34,24.39,0,34.91-21.25,42.59-41.49,44.84,3.26,2.81,6.17,8.35,6.17,16.83,0,12.15-.11,21.95-.11,24.93,0,2.43,1.64,5.26,6.25,4.37,36.08-12.04,62.09-46.08,62.09-86.22C181.75,40.69,141.06,0,90.87,0Z"/></svg>